# xmcd
#
# Track frame offsets: 
#        150
#        12386
#        25989
#        40564
#        55943
#        73051
#        90872
#        110591
#        118340
#        128573
#        143042
#
# Disc length: 2046 seconds
#
# Revision: 0
# Processed by: cddbd v1.5.2PL0 Copyright (c) Steve Scherf et al.
# Submitted via: ExactAudioCopy v0.95b4
#
DISCID=8f07fc0b
DTITLE=Little Louis - Speak of the Devil
DYEAR=2007
DGENRE=Blues
TTITLE0=If There Ain't No Water
TTITLE1=Saturday Night and the Sunday Morning Blues
TTITLE2=Nowhere to Run
TTITLE3=Land of the Free
TTITLE4=Monkey and Angel
TTITLE5=Those Who Fell
TTITLE6=The Devill's Hiding
TTITLE7=Private Hell
TTITLE8=A Man Alone
TTITLE9=The Ballad of Rice Smith Jones and Jack Dupree
TTITLE10=Ain't No Water (Reprise)
EXTD=
EXTT0=
EXTT1=
EXTT2=
EXTT3=
EXTT4=
EXTT5=
EXTT6=
EXTT7=
EXTT8=
EXTT9=
EXTT10=
PLAYORDER=
